<?xml version="1.0" standalone="no"?>
<svg version="1.1" id="Layer_1_15_" xmlns="http://www.w3.org/2000/svg" xmlns:xlink="http://www.w3.org/1999/xlink" x="0px" y="0px" viewBox="0 0 595.276 595.276" enable-background="new 0 0 595.276 595.276" xml:space="preserve">
<path id="color_x5F_7" fill="#702b9e" d="M506.628,491.594h-11.71c0,0,0.557-185.876,0-197.007
	c-0.482-9.645-9.318-10.514-11.669-10.574h11.135c0,0,11.687-0.557,12.243,10.574S506.628,491.594,506.628,491.594z M93.132,491.792
	h20.573v-48.057h45.291c0.12-4.586,0.235-9.076,0.34-13.249H93.132V491.792z M163.248,443.734h9.946v48.057h17.948v-48.057h89.399
	c0.12-4.586,0.235-9.076,0.34-13.249H163.6L163.248,443.734z M284.792,443.734h36.388v48.057h37.901v-48.057h77.356v48.057h17.013
	v-61.306H285.144L284.792,443.734z"></path>
<path id="color_x5F_6" fill-rule="evenodd" clip-rule="evenodd" fill="#9c43f8" d="M479.335,465.85v4.184
	c0,3.594-2.94,6.534-6.534,6.534h-17.708c3.325-0.992,5.949-2.1,7.541-3.339c4.188-3.258,6.893-8.533,8.642-13.913h1.526
	C476.395,459.317,479.335,462.257,479.335,465.85z M173.44,99.466h162.673v219.362h-53.41v-12.863h40.47V144.861H186.38v96.431
	h-12.94V99.466z M186.38,134.406h136.793v-22.231H186.38V134.406z M419.911,299.317l-7.782,7.129c-3.03,0-9.381-0.697-9.446-0.713
	l-3.421-8.083l-2.147,3.515l1.825,4.034c-0.136,0.031,0.861,12.861,0.802,14.049c-0.071,0.386,0.589,1.172,0.505,1.604
	c-0.764,3.404-4.934,22.52-5.102,23.393c-1.872,10.373-3.867,22.729-5.294,35.627c-0.084-0.02-0.183-0.036-0.27-0.055
	c-0.013,0.114-0.027,0.226-0.039,0.34c4.421,0.885,7.986,2.012,9.873,1.957c1.352-0.039,6.644-0.885,13.886-1.947
	c0,0-0.46-57.86-0.459-57.859l0.178-1.069c0.092,0.064,6.165-14.685,6.165-14.685s-0.066-0.029-0.168-0.072l4.34-3.481
	C423.356,303,421.55,300.101,419.911,299.317z M388.604,399.564l23.703,0.178l0.045-1.337l-23.658-1.248L388.604,399.564z"></path>
<path id="color_x5F_5" fill="#FFD2BB" d="M390.705,276.029c-8.56-11.24-8.906-41.941-8.933-46.336
	c6.396,3.931,26.614-0.533,30.059-1.188c9.815-1.866,19.485,4.396,18.654,21.267c-0.601,12.184,9.958-3.766,9.958-3.766
	s6.886-3.499,6.804,6.302c-0.083,9.802-7.808,9.461-7.808,9.461s0.897,11.156-9.905,18.062l0.319,3.121l4.656,0.685
	c0,0-21.449,18.011-27.934,16.158c-4.793-1.369,0.411-12.324,0.411-12.324l-0.137-2.328
	C401.757,284.406,395.358,282.138,390.705,276.029z M490.685,374.034c-2.791,1.739-9.705,5.956-27.527,3.818
	c0,0-7.247-2.02-7.247-2.02c-14.803,1.117-42.47,4.314-42.47,4.314c-7.314,1.072-12.665,1.928-14.026,1.968
	c-1.888,0.055-5.456-1.073-9.881-1.958c-3.694-0.871-8.756-2.511-16.13-0.247l0.108-6.266c-4.93,0.604-9.688-1.7-12.32-3.316
	l-0.939,3.194c0,0-14.191,7.096-33.391,10.017c-19.2,2.922-23.374,3.339-23.374,3.339s-12.762-6.369-27.369,5.816h81.207
	c0,0,0,0,0,0c-0.009,0.021-0.013,0.039-0.022,0.06c0.018-0.001,0.039,0.007,0.053-0.005c0.178-0.164-1.14,1.684,1.604,1.678
	c2.286-0.005,114.642,8.086,121.557,3.548C491.197,390.965,490.745,375.371,490.685,374.034z"></path>
<path id="color_x5F_4" fill="#5591f5" d="M390.332,484.217c8.039-0.364,28.658-1.475,46.105-3.934v4.077h-46.144L390.332,484.217
	z M168.37,400.545c0,0-3.844,2.139-4.164,7.129l-0.606,22.812h117.28c0.286-11.346,0.493-20.353,0.493-22.574
	c0-3.228,0.793-5.765,2.051-7.585H173.087L168.37,400.545z M86.339,405.995v12.035c0,2.023,1.077,3.802,2.683,4.806v4.814
	c0,1.559,1.276,2.835,2.835,2.835h67.478c0.286-11.346,0.493-20.353,0.493-22.574c0-3.228,0.793-5.765,2.051-7.585H92.009
	C88.891,400.326,86.339,402.877,86.339,405.995z M381.156,242.138l1.011,0.645c-0.466-6.013-0.988-13.355-0.989-13.565
	c6.396,3.931,27.208-0.058,30.653-0.713c8.739-1.662,17.356,3.128,18.555,16.104c0.27,1.703,0.358,3.53,0.225,5.48
	c-0.066,0.975-0.063,1.766-0.013,2.43c1.199,6.547,9.845-6.513,9.845-6.513s6.886-3.499,6.804,6.302
	c-0.083,9.802-7.808,9.461-7.808,9.461s0.549,6.857-4.417,13.147c30.062-21.182,23.799-64.262,0.09-72.341
	c-25.769-8.781-41.721,1.643-41.721,1.643c-16.837-0.27-15.791-9.499-18.425-3.877c-1.991,4.248,2.127,10.933,2.127,10.933
	c-5.53,5.867-8.518,5.185-8.3,10.565C369.417,237.187,381.156,242.138,381.156,242.138z M494.917,294.588
	c-0.557-11.13-12.243-10.574-12.243-10.574h-37.287l-0.25,0.908c2.694,3.701,3.763,6.196,3.763,6.196
	c-0.184,0.218-0.035,1.444-0.238,1.663c7.206,1.46,18.029,4.559,23.391,7.927c10.614,6.667,22.182,55.763,19.976,71.677
	c0,0-1.165,2.433-1.188,3.683c-0.119,6.297-1.901,16.188-8.05,20.733c0.116,11.487-0.474,28.104-1.451,39.25
	c0,0-1.951,6.134-5.396,6.439c-0.04-0.018-4.091-0.626-1.572-0.174c-0.21,3.295-0.897,10.23-3.097,16.999h1.526
	c3.594,0,6.534,2.94,6.534,6.534v4.184c0,3.594-2.94,6.534-6.534,6.534h-17.708c0.002-0.001,0.004-0.001,0.006-0.002
	c-0.534,0.159-1.081,0.316-1.649,0.47v7.324h25.885v7.235h15.582C494.917,491.594,495.474,305.718,494.917,294.588z M457.252,427.65
	v-4.814c1.606-1.004,2.683-2.783,2.683-4.806v-12.035c0-3.118-2.551-5.669-5.669-5.669H294.632l-4.717,0.219
	c0,0-3.844,2.139-4.164,7.129l-0.606,22.812h169.273C455.977,430.485,457.252,429.209,457.252,427.65z"></path>
<path id="color_x5F_3" fill="#26c5f3" d="M273.178,361.289V247.292c0-3.3-2.7-6-6-6h9.525c3.3,0,6,2.7,6,6v113.997
	c0,3.3-2.7,6-6,6h-9.525C270.478,367.29,273.178,364.59,273.178,361.289z M226.095,305.045h-15.481c0,0,0,0,0.001,0h8.943
	c1.65,0,3,1.35,3,3v44.78c0,1.65-1.35,3-3,3h6.537c1.33,0,2.418-1.088,2.418-2.418v-45.944
	C228.513,306.134,227.425,305.045,226.095,305.045z M200.287,395.058h-6.906c0,0,4.527-41.496,6.413-44.891
	c1.886-3.395,6.79-5.281,6.79-5.281v-5.281c0,0-7.167-0.755-11.317,8.299c-3.696,8.064-7.508,44.675-8.298,52.583h21.164
	C207.384,394.459,200.287,395.058,200.287,395.058z M359.081,491.74l24.139-0.145c0.386-6.678,3.656-7.235,3.656-7.235
	s27.356-0.948,49.561-4.077v-36.549h-77.356V491.74z M453.45,438.905v38.131c4.108-1.108,7.337-2.37,9.184-3.807
	c9.457-7.357,11.362-24.998,11.739-30.912C471.855,441.866,463.901,440.468,453.45,438.905z M249.18,391.732h-11.924
	c-3.725,0-6.772,3.047-6.772,6.772v1.822h25.469v-1.822C255.952,394.78,252.905,391.732,249.18,391.732z M167.943,396.98
	c-4.271,0-8.115,3.802-8.115,10.931s-2.135,84.119-2.135,84.119h4.271l2.242-84.356c0.32-4.99,4.164-7.129,4.164-7.129l5.125-0.238
	C173.495,400.307,172.214,396.98,167.943,396.98z M289.488,396.98c4.271,0,5.552,3.327,5.552,3.327l-0.408,0.019h82.849v-4.314
	c0-0.089-0.019-0.173-0.026-0.261c-10.69-0.718-18.128-1.208-19.268-1.096c-1.192,0.117-2.014-0.672-1.483-1.952l-89.99-0.01
	c-1.826,0-3.319,1.494-3.319,3.319v4.314h20.031C284.946,398.126,287.15,396.98,289.488,396.98z M265.149,491.771h14.096
	c0.074-2.684,0.727-26.27,1.29-47.83c-5.133,0.794-11.813,2.591-17.104,6.667C253.413,458.323,265.149,491.771,265.149,491.771z
	 M283.515,491.771h27.232l-2.139-15.49l8.92-0.826l-1.357,15.582l5.009,0.166v-47.47h-36.388L283.515,491.771z"></path>
<path id="color_x5F_2" fill="#2b2d42" d="M267.272,241.292H113.853c-3.248,0-5.905,2.657-5.905,5.905v114.187
	c0,3.248,2.657,5.905,5.905,5.905h46.543c-2.446,14.913-5.011,33.197-5.011,33.197l6.397-0.027c1.524-2.29,3.775-3.479,6.161-3.479
	c4.271,0,5.552,3.327,5.552,3.327l-2.451,0.114l15.939-0.067c0.5-4.998,2.115-20.519,4.135-33.651
	c0.063-0.41,0.126-0.819,0.19-1.223c0.073-0.466,0.147-0.929,0.221-1.387c0.046-0.28,0.091-0.555,0.137-0.831
	c0.05-0.305,0.101-0.609,0.152-0.91c0.048-0.281,0.095-0.559,0.143-0.836c0.052-0.299,0.104-0.596,0.156-0.89
	c0.046-0.258,0.091-0.516,0.137-0.77c0.063-0.345,0.126-0.684,0.189-1.021c0.036-0.195,0.073-0.395,0.109-0.588
	c0.095-0.499,0.191-0.987,0.287-1.464c0.038-0.188,0.076-0.368,0.114-0.553c0.065-0.317,0.13-0.63,0.196-0.936
	c0.041-0.19,0.081-0.376,0.122-0.561c0.065-0.297,0.131-0.587,0.197-0.872c0.039-0.168,0.077-0.337,0.116-0.5
	c0.086-0.364,0.173-0.715,0.259-1.056c0.017-0.066,0.034-0.137,0.05-0.203c0.103-0.399,0.206-0.778,0.31-1.142
	c0.032-0.114,0.064-0.219,0.097-0.329c0.074-0.251,0.147-0.495,0.221-0.727c0.037-0.115,0.073-0.228,0.11-0.338
	c0.074-0.222,0.147-0.431,0.221-0.632c0.033-0.09,0.066-0.183,0.099-0.269c0.105-0.274,0.21-0.532,0.315-0.761
	c0.238-0.519,0.488-0.997,0.744-1.453c0.078-0.14,0.16-0.269,0.24-0.404c0.185-0.311,0.373-0.611,0.565-0.893
	c0.088-0.13,0.177-0.258,0.267-0.383c0.205-0.283,0.412-0.55,0.622-0.803c0.071-0.086,0.141-0.177,0.212-0.259
	c0.287-0.33,0.577-0.64,0.869-0.92c0.004-0.004,0.009-0.008,0.013-0.012c0.286-0.273,0.573-0.519,0.861-0.747
	c0.075-0.06,0.149-0.114,0.224-0.171c0.223-0.169,0.444-0.327,0.665-0.472c0.079-0.052,0.157-0.103,0.235-0.152
	c0.236-0.147,0.47-0.282,0.702-0.404c0.049-0.026,0.099-0.056,0.148-0.081c0.284-0.145,0.563-0.273,0.835-0.385
	c0.032-0.013,0.062-0.023,0.094-0.036c0.23-0.092,0.455-0.172,0.674-0.243c0.083-0.027,0.164-0.051,0.245-0.075
	c0.161-0.048,0.319-0.091,0.471-0.129c0.088-0.022,0.177-0.044,0.262-0.063c0.133-0.029,0.259-0.053,0.384-0.076
	c0.086-0.015,0.177-0.034,0.259-0.047c0.02-0.003,0.036-0.004,0.055-0.007c0.316-0.046,0.6-0.073,0.836-0.086
	c0.52-0.028,0.836,0,0.836,0v5.281c0,0-4.904,1.886-6.79,5.281c-0.75,1.35-1.918,8.727-3.052,17.122h70.53
	c3.248,0,5.905-2.657,5.905-5.905V247.198C273.178,243.95,270.52,241.292,267.272,241.292z M228.513,353.408
	c0,1.33-1.088,2.418-2.418,2.418h-6.537c1.65,0,3-1.35,3-3v-44.78c0-1.65-1.35-3-3-3l6.537,0c1.33,0,2.418,1.088,2.418,2.418
	V353.408z M295.04,400.307l-5.125,0.238c0,0-3.844,2.139-4.164,7.129l-2.242,84.356h-4.271c0,0,2.135-76.99,2.135-84.119
	s3.844-10.931,8.115-10.931S295.04,400.307,295.04,400.307z M412.796,398.014l9.847,1.342l-9.861,0.475L412.796,398.014z
	 M491.532,373.463c0,0-3.542,2.767-10.512,4.254c-4.205,0.781-9.959,1.083-17.862,0.135c0,0-7.247-2.02-7.247-2.02
	c-14.803,1.117-42.47,4.314-42.47,4.314l-0.421-58.908c0.092,0.064,6.165-14.685,6.165-14.685s-0.066-0.029-0.168-0.072l4.34-3.481
	c0,0-1.807-2.899-3.446-3.683l-7.782,7.129c-3.03,0-5.644,0.238-8.911-1.069l-3.861-7.842l-2.257,3.594c0,0,1.353,3.165,1.217,3.198
	c0,0,0.417,15.544,1.308,15.96c-1.736,9.414-6.847,33.135-9.772,59.584c-3.722-0.878-9.446-1.248-16.615,0.085
	c0.155-2.133,0.315-4.25,0.481-6.333c-7.473,1.039-14.636-4.741-14.636-4.741s7.235-36.73,9.461-47.582s5.843-12.243,10.296-15.304
	c4.452-3.061,14.469-7.513,14.469-7.513l0.24-0.037c0.078-1.313,0.18-2.337,0.316-2.745c1.464-4.393,4.854-10.686,8.193-11.242
	c0,0,3.251,0.909,4.824,1.214l0.106,1.799c0,0-0.417,0.879-0.906,2.169c-0.981,1.857-2.149,4.816-1.482,7.473
	c0.12,0.995,0.476,1.824,1.196,2.32c0.174,0.204,0.359,0.405,0.572,0.596c3.35,3.023,29.54-16.354,29.54-16.354l-3.688-0.375
	l-1.971-0.736l-0.238-2.97c0,0,1.975,0.524,7.54,0.524c5.565,0,10.995,10.763,10.995,10.763c-0.184,0.218-0.748,2.038-0.951,2.257
	c7.206,1.46,19.098,4.203,24.46,7.571C482.667,307.377,493.739,357.549,491.532,373.463z M480.716,398.077
	c0.599-0.297,1.155-0.63,1.63-1.032c0,11.584-0.028,27.861-1.006,39.007c0,0-1.951,6.134-5.396,6.439
	c-0.04-0.018-0.074-0.046-0.117-0.057c-7.749-2.012-14.907-2.533-22.435-3.963l0.03-7.986h0.994c1.559,0,2.835-1.276,2.835-2.835
	v-4.814c1.416-0.885,2.418-2.374,2.636-4.1c0.126-0.504,0.2-1.029,0.2-1.571V406.86c0-0.499-0.075-0.979-0.184-1.447
	c-0.146-1.419-0.826-2.683-1.829-3.598c-0.478-0.759-1.033-1.396-1.267-1.769c5.93,0.063,11.115-0.011,15.155-0.273
	c1.748-0.075,3.385-0.225,4.869-0.493c1.751-0.272,3.014-0.622,3.684-1.062C480.586,398.172,480.649,398.123,480.716,398.077z
	 M377.644,396.401c0,0,10.15,0.487,10.203,0.49l-0.312,2.673l-9.847,0.045L377.644,396.401z"></path>
<path id="color_x5F_1" fill="#0984E3" d="M545.971,490.931H507.63c0.036-12.222,0.531-185.699-0.003-196.393
	c-0.6-11.989-13.166-11.532-13.243-11.524h-11.203c-0.312-0.007-0.498-0.001-0.507,0h-25.576h-13.18
	c-1.872-1.932-4.033-3.551-6.217-3.884c-2.071-0.316-3.828-0.542-5.018-0.685c0.73-0.663,1.389-1.346,1.989-2.04
	c18.562-12.539,22.893-32.566,20.736-47.176c-2.054-13.905-9.719-24.484-20.003-27.61c-25.292-7.687-40.071,0.263-42.288,1.594
	c-8.973-0.203-12.506-3.011-14.413-4.528c-0.934-0.743-1.666-1.333-2.605-1.112c-0.878,0.206-1.43,1.049-2.036,2.344
	c-1.821,3.888,0.76,9.307,1.792,11.204c-1.655,1.685-3.062,2.768-4.212,3.655c-2.415,1.86-4.01,3.09-3.847,7.104
	c0.642,15.801,12.47,20.968,12.973,21.18c0.133,0.056,0.272,0.078,0.408,0.075c0.867,11.039,3.08,26.077,8.734,33.501
	c3.131,4.11,6.79,6.585,10.426,8.03c-3.52,2.423-6.587,8.219-7.42,10.719c-0.148,0.444-0.276,1.302-0.386,2.352
	c-1.838,0.828-10.199,4.646-14.258,7.436c-0.428,0.294-0.848,0.573-1.26,0.846c-3.947,2.618-7.356,4.88-9.449,15.082
	c-2.201,10.731-9.391,47.223-9.463,47.59c-0.071,0.364,0.064,0.738,0.354,0.972c0.08,0.065,0.648,0.513,1.564,1.113l-0.6,2.039
	c-2.396,1.135-15.629,7.138-32.707,9.737c-16.452,2.503-21.898,3.17-23.065,3.304c-2.014-0.857-14.272-5.315-27.891,5.839h-9.041
	c-2.382,0-4.319,1.938-4.319,4.319v3.314h-5.442v-0.822c0-4.285-3.486-7.771-7.772-7.771h-11.924c-4.286,0-7.772,3.486-7.772,7.771
	v0.822H208.93c-0.325-1.265-0.942-2.335-1.864-3.182c-2.632-2.416-6.692-2.093-6.779-2.086h-5.79
	c0.868-7.885,2.014-17.546,3.115-25.769h69.565h0.331h9.194c3.86,0,7-3.141,7-7.001v-41.461h52.41c0.553,0,1-0.447,1-1V99.466
	c0-0.552-0.447-1-1-1H173.44c-0.552,0-1,0.448-1,1v140.826h-58.823c-3.678,0-6.669,2.992-6.669,6.669V361.62
	c0,3.678,2.992,6.67,6.669,6.67h45.601c-2.048,12.589-4.117,27.066-4.679,31.036h-62.53c-3.678,0-6.669,2.991-6.669,6.669v12.035
	c0,2.182,1.058,4.117,2.683,5.334v4.286c0,2.114,1.72,3.835,3.835,3.835h0.274v59.445h-18.08c-0.552,0-1,0.447-1,1s0.448,1,1,1
	h471.918c0.553,0,1-0.447,1-1S546.523,490.931,545.971,490.931z M494.43,285.013c0.443-0.016,10.7-0.358,11.199,9.625
	c0.531,10.645,0.037,184.127,0.001,196.293h-9.711c0.036-12.222,0.532-185.699-0.003-196.393c-0.255-5.093-2.67-7.935-5.369-9.525
	L494.43,285.013z M457.096,285.014c0.001,0,0.001,0,0.002,0l26.227-0.001c2.286,0.064,10.159,0.91,10.594,9.624
	c0.532,10.645,0.037,184.127,0.001,196.293h-13.584v-6.571c0-0.553-0.447-1-1-1H454.45v-5.582c0.246-0.069,0.496-0.138,0.736-0.209
	h18.48c3.678,0,6.669-2.991,6.669-6.669v-5.913c0-3.678-2.991-6.67-6.669-6.67h-1.011c1.717-5.765,2.387-11.45,2.647-14.839
	c0.128,0.012,0.258,0.029,0.384,0.029c4.282-0.001,6.512-6.847,6.608-7.151c0.022-0.069,0.037-0.143,0.043-0.216
	c1.112-12.672,1.345-26.113,1.079-39.15c8.036-7.222,8.346-19.36,8.287-22.417c0.249-0.17,0.399-0.285,0.446-0.321
	c0.204-0.16,0.339-0.393,0.374-0.649c2.265-16.329-8.907-66.81-19.937-73.737c-5.98-3.757-15.719-6.194-23.315-7.634
	c0.08-0.092,0.166-0.187,0.243-0.278c0.268-0.316,0.312-0.765,0.112-1.128c-0.123-0.224-1.673-3.007-3.944-5.809L457.096,285.014z
	 M435.437,483.359h-17.222c5.683-0.515,11.59-1.15,17.222-1.924V483.359z M435.437,479.415c-21.744,2.973-48.183,3.93-48.595,3.945
	c-0.045,0.001-0.09,0.006-0.134,0.014c-0.16,0.027-3.827,0.751-4.431,7.557h-22.196v-46.196h75.355V479.415z M387.012,485.355
	c0.199-0.007,0.568-0.021,1.063-0.04c0.072,0.017,0.141,0.044,0.218,0.044h47.144v5.571h-51.158
	C384.734,486.289,386.735,485.449,387.012,485.355z M436.437,442.734h-77.355c-0.553,0-1,0.447-1,1v47.196h-15.809v-59.445H452.45
	v59.445h-15.014v-47.196C437.437,443.182,436.989,442.734,436.437,442.734z M160.829,407.911c0-6.823,3.688-9.931,7.114-9.931
	c1.841,0,3.013,0.717,3.716,1.41l-3.335,0.155c-0.154,0.007-0.305,0.05-0.44,0.125c-0.176,0.099-4.324,2.467-4.677,7.976
	l-2.214,83.284h-2.269C158.987,481.418,160.829,414.502,160.829,407.911z M156.723,490.931h-42.019v-46.196h43.264
	C157.448,464.613,156.86,485.968,156.723,490.931z M281.697,401.326c-0.821,1.745-1.324,3.926-1.324,6.585
	c0,1.67-0.119,7.248-0.301,14.788H164.807l0.398-14.962c0.245-3.813,2.761-5.736,3.471-6.205l4.426-0.206H281.697z M279.565,442.734
	H164.274l0.299-11.249h115.281C279.764,435.066,279.666,438.858,279.565,442.734z M279.905,429.485H164.626l0.127-4.786h115.27
	C279.986,426.232,279.946,427.831,279.905,429.485z M164.221,444.734h7.972v46.196h-9.2L164.221,444.734z M174.193,444.734h6.918
	v46.196h-6.918V444.734z M183.111,444.734h7.03v46.196h-7.03V444.734z M192.141,444.734h80.629c-3.398,1.11-6.886,2.721-9.951,5.081
	c-10.073,7.758-0.35,37.66,0.817,41.115h-71.496V444.734z M265.627,490.571c-0.11-0.318-10.922-31.981-1.587-39.172
	c4.715-3.632,10.629-5.393,15.462-6.256c-0.517,19.762-1.098,40.858-1.234,45.787h-12.592
	C265.68,490.812,265.669,490.69,265.627,490.571z M282.373,407.911c0-6.823,3.688-9.931,7.115-9.931c1.841,0,3.013,0.717,3.715,1.41
	l-3.335,0.155c-0.154,0.007-0.305,0.05-0.44,0.125c-0.176,0.099-4.324,2.467-4.677,7.976l-2.214,83.284h-2.269
	C280.531,481.418,282.373,414.502,282.373,407.911z M374.68,380.638c7.032-1.364,13.979,0.279,19.05,1.479
	c2.445,0.578,4.354,1.017,5.715,0.997c1.065-0.031,4.162-0.494,8.85-1.193c11.34-1.694,31.634-4.717,47.422-5.122
	c0.106,0.305,0.353,0.55,0.679,0.638c5.953,1.62,11.169,2.228,15.644,2.228c8.709,0,14.594-2.297,17.651-3.902
	c-0.114,4.386-1.25,15.817-9.721,21.376c-6.219,4.079-70.064-0.209-100.749-2.271c-13.407-0.901-19.912-1.329-21.131-1.207
	c-0.018,0.002-0.033,0.003-0.048,0.004C358.273,391.566,365.976,382.324,374.68,380.638z M403.857,298.769
	c0.593,1.16,1.601,1.997,2.988,2.398c0.192,0.056,0.413,0.082,0.661,0.082c1.412,0,3.684-0.869,6.359-2.217
	c1.269-0.338,2.927-0.484,4.578,0.237c0.001,0,0.002,0.001,0.002,0.001l-6.566,5.655c-0.178,0.153-0.274,0.359-0.315,0.573
	c-2.395-0.105-5.053-0.313-7.503-0.705l-3.613-7.026c0.134-0.049,0.268-0.098,0.409-0.123
	C402.255,297.401,403.529,298.467,403.857,298.769z M447.658,293.982c7.603,1.383,17.876,3.812,23.864,7.575
	c10.211,6.414,20.979,55.342,19.075,71.343c-0.031,0.02-0.07,0.046-0.105,0.068c-0.248,0.049-0.458,0.18-0.602,0.373
	c-3.247,1.922-14.173,7.06-32.226,2.363c-0.01-4.104-0.522-23.652-8.796-49.603c-0.168-0.525-0.733-0.817-1.257-0.649
	c-0.526,0.168-0.816,0.73-0.649,1.257c7.702,24.157,8.605,42.651,8.693,48.091c-13.489,0.347-30.144,2.573-41.847,4.282
	l0.032-56.873c0.246-0.103,0.449-0.297,0.548-0.554l5.624-14.471l3.141-2.324c0.728,1.726,1.314,3.801,1.746,6.202
	c0.062,0.34,0.294,0.625,0.614,0.752c0.12,0.048,0.245,0.071,0.37,0.071c0.21,0,0.419-0.066,0.594-0.195
	C427.103,311.23,440.625,301.232,447.658,293.982z M418.841,305.563c-0.668,0.019-2.406,0.057-4.656,0.016l6.003-5.17
	c0.76,0.675,1.449,1.556,2.065,2.631L418.841,305.563z M398.841,299.017l2.72,5.287c-1.038-0.247-1.996-0.539-2.825-0.885
	l-1.179-2.239c0.023-0.05,0.044-0.094,0.068-0.144C397.932,300.37,398.34,299.637,398.841,299.017z M399.413,305.789
	c5.731,1.803,14.727,1.862,18.295,1.802l-4.942,12.717c-0.018,0.001-0.035,0.008-0.053,0.011
	c-8.172,0.256-11.581-1.038-12.573-1.533c-0.381-5.257-0.643-10.486-0.759-12.983C399.392,305.798,399.402,305.793,399.413,305.789z
	 M410.616,322.354c0.393,0,0.805-0.005,1.223-0.013l-0.032,57.035c-1.347,0.199-2.636,0.391-3.808,0.566
	c-4.451,0.665-7.667,1.145-8.613,1.172c-1.063,0.038-2.984-0.42-5.196-0.943c-1.014-0.24-2.138-0.504-3.342-0.761
	c3.396-28.354,8.818-52.92,10.021-58.195C402.673,321.779,405.704,322.354,410.616,322.354z M480.354,435.851
	c-0.594,1.786-2.537,5.991-4.955,5.637c-0.164-0.03-8.783-1.606-20.949-3.438v-6.567c2.099-0.018,3.802-1.729,3.802-3.832v-4.285
	c1.625-1.217,2.684-3.152,2.684-5.335v-12.035c0-2.09-0.968-3.957-2.477-5.18c0.68,0.004,1.35,0.006,2.006,0.006
	c10.859,0,18.405-0.57,20.602-2.012c0.132-0.086,0.253-0.18,0.381-0.268C481.663,410.995,481.409,423.774,480.354,435.851z
	 M286.171,429.485l0.127-4.786h167.969c0.691,0,1.358-0.106,1.985-0.302v3.253c0,1.012-0.822,1.835-1.834,1.835H286.171z
	 M472.019,460.316h1.647c2.574,0,4.669,2.095,4.669,4.67v5.913c0,2.574-2.095,4.669-4.669,4.669h-13.041
	c1.039-0.493,1.927-1.009,2.623-1.55C467.452,470.748,470.209,465.607,472.019,460.316z M462.02,472.44
	c-1.571,1.222-4.212,2.315-7.569,3.294v-35.663c8.839,1.334,15.766,2.526,18.857,3.072
	C472.796,449.658,470.674,465.707,462.02,472.44z M411.796,398.946l0,0.38h-22.872c0.039-0.601,0.081-1.201,0.124-1.802
	C396.696,398.026,404.347,398.51,411.796,398.946z M413.796,399.062c1.568,0.09,3.127,0.179,4.673,0.264h-4.673L413.796,399.062z
	 M379.085,396.862c2.646,0.178,5.303,0.355,7.964,0.531c-0.05,0.644-0.097,1.289-0.143,1.933h-8.425v-2.504
	C378.683,396.835,378.881,396.849,379.085,396.862z M454.267,401.326c2.574,0,4.669,2.095,4.669,4.669v12.035
	c0,2.574-2.095,4.669-4.669,4.669H286.351l0.398-14.962c0.245-3.813,2.761-5.736,3.471-6.205l4.426-0.206H454.267z M285.765,444.734
	h34.415v15.61c-0.276,0.815-0.522,1.653-0.705,2.542c-0.886,4.304-1.595,8.18-2.162,11.585l-7.898,0.731l-0.332-2.785
	c-0.065-0.549-0.558-0.944-1.111-0.875c-0.549,0.065-0.94,0.562-0.875,1.111l0.428,3.597c-0.002,0.045-0.018,0.086-0.014,0.132
	c0.006,0.063,0.034,0.117,0.051,0.176l1.622,13.625c0.04,0.335,0.248,0.598,0.523,0.748h-25.17L285.765,444.734z M309.652,477.189
	l7.33-0.679c-1.391,8.755-1.769,13.901-1.805,14.42h-4.5c0.336-0.194,0.543-0.574,0.494-0.984L309.652,477.189z M320.181,469.71
	v21.22h-2.999C317.271,489.731,317.891,482.111,320.181,469.71z M321.181,442.734h-35.362l0.299-11.249h54.155v59.445h-18.092
	v-47.196C322.181,443.182,321.733,442.734,321.181,442.734z M454.45,485.359h23.885v5.571H454.45V485.359z M447.53,291.185
	c-5.266,5.939-17.089,15.02-20.977,17.951c-1.368-6.242-3.823-10.175-7.309-11.699c-0.519-0.227-1.035-0.385-1.543-0.495
	c7.496-4.33,16.264-10.617,18.793-12.458c0.336-0.244,0.486-0.671,0.377-1.072s-0.455-0.692-0.868-0.732l-5.204-0.504l-0.12-1.978
	c0.057,0.016,0.108,0.046,0.169,0.052c0.027,0.002,2.761,0.279,6.55,0.857C441.235,281.692,445.717,288.095,447.53,291.185z
	 M369.793,221.798c-0.121-2.981,0.748-3.65,3.069-5.439c1.323-1.02,2.97-2.289,4.959-4.399c0.311-0.329,0.361-0.826,0.124-1.21
	c-1.066-1.731-3.518-6.9-2.073-9.984c0.35-0.746,0.562-1.06,0.673-1.191c0.217,0.122,0.598,0.424,0.914,0.676
	c2.113,1.681,6.049,4.81,15.918,4.968c0.187,0.004,0.396-0.054,0.563-0.164c0.146-0.095,14.852-9.435,40.882-1.523
	c9.537,2.899,16.667,12.857,18.606,25.989c1.884,12.763-1.391,29.838-15.448,41.864c1.814-3.704,2.292-7.076,2.416-8.669
	c1.178-0.141,3.185-0.623,4.89-2.241c1.935-1.835,2.931-4.58,2.961-8.157c0.031-3.67-0.883-6.107-2.717-7.243
	c-2.433-1.507-5.414-0.022-5.54,0.041c-0.158,0.081-0.292,0.201-0.388,0.35c-2.878,4.468-6.524,8.388-7.509,8.061
	c-0.008-0.002-0.732-0.41-0.484-4.052c0.505-7.414-2.099-14.315-6.963-18.46c-3.667-3.125-8.119-4.281-12.534-3.259
	c-20.308,4.702-27.709,2.447-30.312,0.684c-1.455-0.985-1.645-1.941-1.657-2.019c-0.064-0.537-0.521-0.927-1.089-0.877
	c-0.55,0.053-0.952,0.541-0.899,1.091c0.017,0.181,0.229,1.814,2.324,3.321c0.045,0.032,0.094,0.064,0.14,0.096
	c-0.001,0.986,0.022,5.238,0.399,10.908C378.799,239.789,370.309,234.5,369.793,221.798z M391.501,275.423
	c-7.961-10.454-8.788-38.155-8.872-44.309c4.391,1.785,13.01,2.506,29.934-1.412c3.783-0.874,7.613,0.131,10.786,2.833
	c4.384,3.736,6.726,10.017,6.264,16.802c-0.156,2.297-0.135,5.428,1.851,6.086c2.967,0.983,7.624-5.503,9.656-8.624
	c0.581-0.234,2.175-0.758,3.356-0.026c1.183,0.732,1.795,2.644,1.771,5.526c-0.025,3-0.805,5.255-2.317,6.704
	c-1.912,1.831-4.423,1.762-4.446,1.766c-0.275-0.004-0.543,0.091-0.741,0.283c-0.198,0.192-0.308,0.458-0.303,0.734
	c0.006,0.384,0.034,7.058-4.999,13.037c-0.044,0.029-0.085,0.06-0.129,0.09c-0.175,0.117-0.284,0.285-0.357,0.467
	c-1.885,2.087-4.413,4.061-7.814,5.617c-0.502,0.229-0.723,0.823-0.493,1.325c0.168,0.367,0.53,0.584,0.91,0.584
	c0.139,0,0.28-0.029,0.415-0.091c0.994-0.455,1.912-0.947,2.774-1.465l0.109,1.798c0.029,0.491,0.412,0.887,0.901,0.935l3.411,0.331
	c-7.181,5.118-14.739,9.998-19.873,12.698c-1.583,0.431-2.653,1.099-2.74,1.155c-0.126,0.081-0.223,0.187-0.299,0.305
	c-1.361,0.568-2.354,0.82-2.857,0.673c-0.885-0.255-1.469-0.735-1.806-1.441c-0.008-0.021-0.022-0.038-0.031-0.058
	c-0.015-0.034-0.039-0.062-0.053-0.098c-0.772-1.927,0.215-5.103,1.245-7.473l0.014,0.753c0.01,0.546,0.456,0.982,1,0.982
	c0.006,0,0.012,0,0.019,0c0.552-0.01,0.991-0.466,0.981-1.018l-0.081-4.447c0.547,0.029,1.086,0.048,1.604,0.048
	c4.737,0,8.156-1.098,8.233-1.124c0.523-0.174,0.806-0.74,0.632-1.264c-0.173-0.523-0.736-0.809-1.264-0.634
	C417.232,283.692,401.592,288.675,391.501,275.423z M403.04,285.594c0.018-0.003,0.032-0.015,0.05-0.019
	c1.224,0.326,2.43,0.556,3.594,0.701l0.001,0.044c-0.169,0.084-0.323,0.199-0.425,0.374c-0.367,0.626-3.041,5.359-3.017,9.337
	c-0.77-0.325-1.699-0.531-2.709-0.36c-1.897,0.321-3.487,1.844-4.726,4.527c-0.697,1.511-1.248,2.602-1.677,3.388
	c0.151-3.164,0.352-6.74,0.68-7.568C396.891,290.762,400.777,285.971,403.04,285.594z M369.521,321.502
	c1.928-9.395,4.87-11.347,8.596-13.817c0.421-0.279,0.851-0.563,1.287-0.864c3.353-2.305,10.045-5.47,12.931-6.797
	c-0.196,2.77-0.298,5.769-0.315,6.312c-0.003,0.09,0.006,0.18,0.026,0.267c0.116,0.481,0.523,0.838,1.013,0.886
	c0.055,0.005,0.108,0.009,0.164,0.009c0.684,0,1.461-0.528,3.253-4.076l0.87,1.652c0.091,2.039,0.383,8.244,0.838,14.378
	c0.021,0.274,0.153,0.528,0.367,0.702c0.056,0.045,0.195,0.15,0.441,0.29c-1.049,4.569-6.63,29.579-10.112,58.571
	c-4.306-0.803-9.426-1.326-14.535-0.346c0.115-1.545,0.232-3.079,0.353-4.596c0.096-0.181,0.152-0.385,0.12-0.604
	c-0.009-0.06-0.04-0.107-0.058-0.162c2.549-31.729,6.19-56.879,6.25-57.286c0.08-0.546-0.298-1.054-0.845-1.134
	c-0.55-0.087-1.055,0.298-1.134,0.845c-0.06,0.406-3.675,25.382-6.228,56.983c-5.616,0.408-11.019-3.104-12.619-4.253
	C361.144,363.592,367.48,331.454,369.521,321.502z M303.04,387.771c0.17,0.084,0.359,0.118,0.547,0.101
	c0.172-0.018,4.418-0.454,23.425-3.346c19.135-2.911,33.544-10.04,33.688-10.111c0.248-0.124,0.434-0.346,0.512-0.612l0.576-1.96
	c2.498,1.384,6.146,2.913,10.079,2.913c0.257,0,0.516-0.014,0.775-0.028c-0.116,1.474-0.229,2.964-0.339,4.464
	c-6.901,2.191-13.478,8.484-15.568,12.501H279.05C291.926,382.49,302.56,387.534,303.04,387.771z M264.394,396.012
	c0-1.279,1.041-2.319,2.319-2.319h89.347c-0.013,0.161-0.015,0.315,0.005,0.453c0.114,0.783,0.753,1.648,2.22,1.505
	c1.016-0.098,8.455,0.385,18.195,1.037v2.638h-80.82c-0.651-1.118-2.419-3.346-6.172-3.346c-2.354,0-4.798,1.086-6.565,3.346
	h-18.529V396.012z M231.483,398.504c0-3.183,2.589-5.771,5.772-5.771h11.924c3.183,0,5.772,2.589,5.772,5.771v0.822h-23.469V398.504
	z M192.637,395.727c0.19,0.211,0.46,0.332,0.745,0.332l6.989-0.004c0.034,0,3.374-0.252,5.351,1.569
	c0.497,0.458,0.85,1.037,1.094,1.702h-18.722c1.01-9.904,4.638-43.489,8.084-51.006c2.976-6.492,7.497-7.562,9.408-7.713v3.618
	c-1.465,0.663-5.031,2.517-6.665,5.456c-1.929,3.472-6.067,41.001-6.533,45.269C192.357,395.232,192.448,395.515,192.637,395.727z
	 M161.582,354.826H158.8c-1.012,0-1.834-0.823-1.834-1.835V307.88c0-1.012,0.823-1.834,1.834-1.834h51.814h8.943
	c1.103,0,2,0.897,2,2v44.78c0,1.103-0.897,2-2,2h-19.915c0.402-2.193,0.754-3.685,1.026-4.174c1.684-3.029,6.23-4.816,6.276-4.834
	c0.385-0.148,0.64-0.52,0.64-0.933v-5.281c0-0.133-0.028-0.259-0.076-0.376c-0.017-0.041-0.046-0.072-0.068-0.11
	c-0.04-0.071-0.079-0.141-0.135-0.2c-0.034-0.036-0.078-0.06-0.117-0.091c-0.058-0.045-0.115-0.091-0.183-0.123
	c-0.05-0.023-0.104-0.032-0.158-0.047c-0.053-0.015-0.102-0.041-0.159-0.047c-0.068-0.008-0.465-0.044-1.086-0.006h-31.461
	c-0.125,0-0.248,0.023-0.364,0.068c-0.341,0.133-8.376,3.336-10.765,10.103C162.631,349.862,162.137,352.015,161.582,354.826z
	 M223.518,353.38c0.003-0.023,0.004-0.046,0.007-0.068c0.009-0.107,0.032-0.211,0.032-0.32v-0.165v-44.78v-0.166
	c0-0.11-0.023-0.214-0.033-0.322c-0.003-0.021-0.004-0.043-0.007-0.065c-0.053-0.521-0.208-1.008-0.449-1.447h3.026
	c0.782,0,1.418,0.636,1.418,1.418v45.943c0,0.782-0.636,1.419-1.418,1.419h-3.026C223.31,354.388,223.464,353.901,223.518,353.38z
	 M187.38,240.292v-94.431h134.792v159.104h-38.47v-57.673c0-3.86-3.141-7-7-7h-9.194h-0.331H187.38z M322.173,133.406H187.38v-20.23
	h134.792V133.406z M187.38,135.406h134.792v8.456H187.38V135.406z M281.703,361.289c0,2.758-2.243,5.001-5,5.001h-4.44
	c1.183-1.204,1.915-2.852,1.915-4.67v-0.331V247.292v-0.331c0-1.817-0.732-3.465-1.915-4.669h4.44c2.757,0,5,2.243,5,5V361.289z
	 M174.44,100.466h160.673v217.362h-51.41v-10.862h39.47c0.553,0,1-0.447,1-1V112.175c0-0.552-0.447-1-1-1H186.38
	c-0.552,0-1,0.448-1,1v128.117h-10.94V100.466z M113.617,366.29c-2.575,0-4.669-2.095-4.669-4.67V246.961
	c0-2.574,2.095-4.669,4.669-4.669h153.561c2.757,0,5,2.243,5,5v113.997c0,2.758-2.243,5.001-5,5.001h-69.294
	c0.494-3.605,0.974-6.857,1.409-9.464h20.264h0.166h6.372c1.885,0,3.418-1.534,3.418-3.419v-45.943c0-1.885-1.533-3.418-3.418-3.418
	h-6.372h-9.109H158.8c-2.114,0-3.834,1.72-3.834,3.834v45.111c0,2.114,1.72,3.835,3.834,3.835h2.398
	c-0.52,2.774-1.081,6.016-1.651,9.464H113.617z M164.9,349.441c1.907-5.403,8.329-8.359,9.442-8.837h25.54
	c-1.931,1.299-3.936,3.419-5.524,6.882c-3.642,7.946-7.292,42.067-8.278,51.84h-11.964c-0.651-1.118-2.419-3.346-6.173-3.346
	c-2.354,0-4.798,1.086-6.564,3.346h-4.819C157.605,391.967,162.907,355.088,164.9,349.441z M87.339,405.995
	c0-2.574,2.095-4.669,4.669-4.669h68.144c-0.821,1.745-1.324,3.926-1.324,6.585c0,1.67-0.119,7.248-0.301,14.788H92.009
	c-2.575,0-4.669-2.095-4.669-4.669V405.995z M90.022,427.65v-3.253c0.628,0.196,1.295,0.302,1.986,0.302h66.47
	c-0.037,1.532-0.077,3.132-0.119,4.786H91.857C90.846,429.485,90.022,428.662,90.022,427.65z M94.132,431.485h64.178
	c-0.09,3.581-0.188,7.373-0.289,11.249h-44.317c-0.552,0-1,0.447-1,1v47.196H94.132V431.485z M65.151,491.792c0,0.553-0.448,1-1,1
	H48.743c-0.552,0-1-0.447-1-1s0.448-1,1-1h15.408C64.703,490.792,65.151,491.239,65.151,491.792z"></path>
</svg>